# xmcd CD database file
#
# Track frame offsets:
#	150
#	13138
#	29598
#	51710
#	63338
#	78423
#	94980
#	108883
#	121958
#	136065
#
# Disc length: 2011 seconds
#
# Revision: 0
# Processed by: cddbd v1.5.1PL0 Copyright (c) Steve Scherf et al.
# Submitted via: CDex 1.51
#
DISCID=8707d90a
DTITLE=Various Artist - Country Classics Vol. 12
DYEAR=1988
DGENRE=Country
TTITLE0=George Strait/It Ain't Cool to Be Crazy About You
TTITLE1=Reba McEntire/Love Will Find Its Way To You
TTITLE2=Conway Twitty/That's My Job
TTITLE3=Waylon Jennings/My Rough And Rowdy Days
TTITLE4=Glen Campbell/I Have You
TTITLE5=Steve Wariner/Baby I'm Yours
TTITLE6=Patty Loveless/If My Heart Had Windows
TTITLE7=Lee Greenwood/Touch And Go Crazy
TTITLE8=Skip Ewing/You Memory Wins Again
TTITLE9=Nanci Griffith/I Knew Love
EXTD=YEAR: 1988
EXTT0=
EXTT1=
EXTT2=
EXTT3=
EXTT4=
EXTT5=
EXTT6=
EXTT7=
EXTT8=
EXTT9=
PLAYORDER=
